<?xml version="1.0" standalone="no"?>
<!DOCTYPE svg PUBLIC "-//W3C//DTD SVG 20010904//EN"
 "http://www.w3.org/TR/2001/REC-SVG-20010904/DTD/svg10.dtd">
<svg version="1.0" xmlns="http://www.w3.org/2000/svg"
 width="171.000000pt" height="171.000000pt" viewBox="0 0 171.000000 171.000000"
 preserveAspectRatio="xMidYMid meet">
<metadata>
Created by potrace 1.14, written by Peter Selinger 2001-2017
</metadata>
<g transform="translate(0.000000,171.000000) scale(0.100000,-0.100000)"
fill="#000000" stroke="none">
<path d="M368 1356 c-47 -75 -47 -75 -78 -65 -17 6 -32 10 -33 8 -2 -2 -14
-22 -29 -44 -124 -192 -198 -316 -194 -324 3 -5 18 -12 33 -16 53 -13 155 -77
223 -141 37 -35 72 -64 79 -64 6 0 13 12 17 28 3 15 8 34 11 42 3 8 7 24 8 35
1 11 10 73 19 138 16 117 20 174 12 166 -3 -3 -7 -27 -11 -54 -19 -165 -51
-325 -64 -325 -4 0 -20 14 -36 30 -26 27 -167 130 -178 130 -2 0 -25 9 -51 20
l-46 21 57 87 c31 48 79 124 107 169 58 94 49 93 164 36 44 -22 99 -61 140
-99 l67 -64 -25 -17 c-38 -27 -130 -138 -130 -157 0 -17 18 -1 43 38 15 24 50
65 78 91 l51 48 -16 61 c-22 79 -88 205 -135 256 l-36 41 -47 -75z m137 -78
c36 -67 68 -148 62 -154 -2 -2 -21 12 -43 32 -21 19 -70 54 -109 76 -38 23
-72 43 -73 44 -2 1 15 30 38 64 l42 62 24 -28 c13 -16 39 -59 59 -96z"/>
<path d="M688 1118 c-16 -5 -28 -14 -28 -20 0 -6 8 -7 18 -3 73 30 170 10 225
-46 46 -49 47 -63 5 -55 -92 17 -156 18 -217 2 -197 -50 -319 -210 -322 -421
-1 -65 9 -133 20 -140 12 -7 78 86 107 149 31 67 50 177 40 229 -11 57 -23 44
-18 -19 6 -70 -12 -152 -48 -224 -32 -63 -65 -108 -74 -99 -13 13 -13 126 0
188 34 164 139 277 296 317 123 32 252 4 385 -83 21 -14 25 -15 21 -3 -2 8
-33 32 -69 52 -38 23 -68 48 -75 64 -39 93 -169 148 -266 112z"/>
<path d="M782 1069 c4 -27 23 -36 31 -15 4 10 -2 20 -14 27 -18 9 -20 8 -17
-12z"/>
<path d="M965 660 c-8 -13 4 -32 16 -25 12 8 12 35 0 35 -6 0 -13 -4 -16 -10z"/>
<path d="M1387 663 c-11 -10 -8 -20 8 -27 10 -4 15 1 15 14 0 20 -11 26 -23
13z"/>
<path d="M714 649 c-56 -16 -52 -81 5 -94 35 -8 55 -29 47 -50 -7 -19 -55 -20
-62 0 -6 16 -34 21 -34 7 0 -18 38 -42 67 -42 34 0 66 30 61 57 -2 10 -24 28
-50 41 -49 23 -62 47 -32 59 9 3 25 1 35 -5 10 -7 26 -12 35 -12 14 0 14 3 4
16 -22 25 -43 32 -76 23z"/>
<path d="M830 565 c0 -74 3 -95 14 -95 8 0 12 9 11 25 -2 14 1 25 6 25 5 0 16
-11 25 -25 9 -14 26 -25 37 -25 19 0 17 4 -13 35 l-34 35 34 35 c31 32 32 35
13 35 -12 0 -30 -11 -41 -25 -11 -14 -22 -25 -25 -25 -3 0 -4 23 -2 50 2 37
-1 50 -11 50 -11 0 -14 -21 -14 -95z"/>
<path d="M1027 568 c2 -50 5 -93 8 -96 12 -13 18 13 20 98 1 76 -1 90 -14 90
-14 0 -16 -13 -14 -92z"/>
<path d="M1093 565 c0 -73 3 -95 14 -95 10 0 13 22 13 95 0 74 -3 95 -14 95
-10 0 -13 -21 -13 -95z"/>
<path d="M1659 643 c-1 -10 0 -24 1 -32 1 -9 -4 -11 -17 -6 -37 14 -53 13 -78
-6 -19 -16 -25 -30 -25 -58 0 -53 23 -72 88 -69 45 2 52 5 53 23 1 25 1 135 0
153 -1 19 -21 14 -22 -5z m-9 -74 c30 -54 -34 -106 -72 -59 -22 27 -23 44 -2
64 22 23 61 20 74 -5z"/>
<path d="M1228 633 c-2 -10 -3 -49 -3 -88 l1 -70 53 0 c43 0 56 4 67 20 11 17
11 25 -1 48 -8 15 -10 29 -4 32 13 9 11 49 -3 63 -7 7 -33 12 -59 12 -36 0
-48 -4 -51 -17z m90 -16 c16 -19 0 -37 -36 -42 -30 -4 -32 -2 -32 25 0 26 4
30 29 30 16 0 33 -6 39 -13z m10 -91 c5 -23 -14 -36 -50 -36 -25 0 -28 4 -28
31 0 29 2 30 37 27 28 -2 39 -8 41 -22z"/>
<path d="M1495 611 c-11 -5 -26 -6 -32 -4 -10 4 -13 -13 -13 -66 0 -52 4 -71
13 -71 8 0 13 13 14 33 1 70 3 79 23 84 11 3 20 12 20 19 0 8 -1 14 -2 13 -2
0 -12 -4 -23 -8z"/>
<path d="M962 540 c1 -52 5 -70 15 -70 10 0 13 18 13 70 0 54 -3 70 -14 70
-12 0 -15 -15 -14 -70z"/>
<path d="M1385 540 c0 -50 3 -70 12 -70 9 0 13 20 13 70 0 49 -4 70 -12 70 -9
0 -13 -21 -13 -70z"/>
<path d="M228 497 c-49 -28 -88 -56 -88 -63 0 -6 43 -51 96 -99 l95 -88 17 23
c37 52 54 80 45 80 -4 0 -21 -18 -36 -40 l-28 -40 -85 77 c-46 42 -84 80 -84
84 0 4 36 28 80 53 44 26 80 51 80 56 0 13 7 16 -92 -43z"/>
<path d="M982 390 c0 -41 2 -47 7 -25 7 35 36 41 36 8 0 -12 4 -26 9 -30 4 -4
6 8 4 27 -2 27 -8 36 -25 38 -12 2 -24 11 -26 20 -3 9 -5 -8 -5 -38z"/>
<path d="M668 422 c7 -5 13 -25 14 -45 2 -50 18 -47 18 2 0 22 5 42 13 44 6 3
-4 6 -23 6 -21 0 -30 -2 -22 -7z"/>
<path d="M1310 385 c0 -25 5 -45 10 -45 6 0 10 20 10 45 0 25 -4 45 -10 45 -5
0 -10 -20 -10 -45z"/>
<path d="M767 403 c-4 -3 -7 -17 -7 -29 0 -24 26 -37 62 -31 22 4 36 17 18 17
-10 0 -9 5 4 19 16 17 15 19 -15 25 -40 8 -54 8 -62 -1z"/>
<path d="M861 388 c-12 -19 -11 -23 5 -35 22 -16 56 -14 61 4 3 7 -4 10 -19 6
-18 -4 -20 -3 -8 6 10 7 11 11 3 11 -7 0 -13 5 -13 10 0 7 6 7 19 0 19 -10 37
0 24 14 -15 14 -59 5 -72 -16z"/>
<path d="M1090 375 c0 -19 5 -35 10 -35 6 0 10 14 10 30 0 20 5 30 15 30 10 0
15 -10 15 -31 0 -16 4 -28 9 -25 5 4 8 14 6 24 -2 9 -4 23 -4 30 -1 7 -14 12
-31 12 -28 0 -30 -3 -30 -35z"/>
<path d="M1204 396 c-11 -28 1 -51 25 -51 32 0 49 28 32 49 -17 20 -50 21 -57
2z m43 -12 c7 -20 -8 -36 -25 -25 -14 8 -6 41 9 41 5 0 12 -7 16 -16z"/>
<path d="M1383 404 c-18 -8 -16 -39 3 -55 21 -17 49 0 49 32 0 24 -24 34 -52
23z m40 -18 c3 -7 0 -19 -6 -25 -14 -14 -38 5 -30 25 7 18 29 18 36 0z"/>
<path d="M1486 395 c-9 -26 12 -58 35 -52 13 4 19 1 16 -6 -2 -7 -14 -12 -26
-11 -11 0 -21 -3 -21 -8 0 -5 12 -8 27 -6 21 2 29 10 33 34 4 16 4 37 1 45 -9
21 -57 24 -65 4z m51 -11 c6 -16 -15 -37 -29 -28 -4 3 -8 14 -8 25 0 23 28 26
37 3z"/>
<path d="M1605 376 c8 -19 12 -43 9 -53 -5 -15 -4 -15 8 2 20 27 39 85 29 85
-5 0 -12 -12 -16 -27 l-7 -28 -10 28 c-5 15 -14 27 -18 27 -5 0 -3 -15 5 -34z"/>
</g>
</svg>
